<?xml version="1.0" encoding="utf-8"?>
<!-- Svg Vector Icons : http://www.onlinewebfonts.com/icon -->
<!DOCTYPE svg PUBLIC "-//W3C//DTD SVG 1.1//EN" "http://www.w3.org/Graphics/SVG/1.1/DTD/svg11.dtd">
<svg version="1.1" xmlns="http://www.w3.org/2000/svg" xmlns:xlink="http://www.w3.org/1999/xlink" x="0px" y="0px" viewBox="0 0 256 256" enable-background="new 0 0 256 256" xml:space="preserve">
<metadata> Svg Vector Icons : http://www.onlinewebfonts.com/icon </metadata>
<g><g><path fill="#000000" d="M128,15.5c62,0,112.5,50.5,112.5,112.5c0,62-50.5,112.5-112.5,112.5C66,240.5,15.5,190,15.5,128C15.5,66,66,15.5,128,15.5 M128,10C62.8,10,10,62.8,10,128c0,65.2,52.8,118,118,118c65.2,0,118-52.8,118-118C246,62.8,193.2,10,128,10L128,10z"/><path fill="#000000" d="M128,134.5c-18.8,0-34.1-15.3-34.1-34.1c0-18.8,15.3-34.1,34.1-34.1c18.8,0,34.1,15.3,34.1,34.1S146.8,134.5,128,134.5z M128,71.8c-15.7,0-28.6,12.8-28.6,28.6s12.8,28.6,28.6,28.6c15.7,0,28.6-12.8,28.6-28.6S143.7,71.8,128,71.8z"/><path fill="#000000" d="M183.3,189.8c-1.5,0-2.8-1.2-2.8-2.8c0-29-23.6-52.5-52.5-52.5c-29,0-52.5,23.6-52.5,52.5c0,1.5-1.2,2.8-2.8,2.8s-2.8-1.2-2.8-2.8c0-32,26.1-58.1,58.1-58.1c32,0,58.1,26.1,58.1,58.1C186.1,188.5,184.8,189.8,183.3,189.8z"/></g></g>
</svg>